<svg width="250" height="250" viewBox="0 0 250 250" fill="none" xmlns="http://www.w3.org/2000/svg">
<circle cx="23" cy="234" r="16" fill="#555555"/>
<circle cx="225" cy="234" r="16" fill="#555555"/>
<path d="M24 105H86V170C86 175.523 81.5228 180 76 180H34C28.4772 180 24 175.523 24 170V105Z" fill="#EDD18D"/>
<path d="M174.59 108.334L235.722 118.672L226.8 171.428C225.879 176.874 220.718 180.542 215.273 179.621L173.861 172.618C168.415 171.697 164.747 166.536 165.668 161.09L174.59 108.334Z" fill="#EDD18D"/>
<path d="M96.9922 115.533H158.992V170.575C158.992 176.098 154.515 180.575 148.992 180.575H106.992C101.469 180.575 96.9922 176.098 96.9922 170.575V115.533Z" fill="#EDD18D"/>
<path d="M118 41H191V106C191 111.523 186.523 116 181 116H128C122.477 116 118 111.523 118 106V41Z" fill="#EDD18D"/>
<g clip-path="url(#clip0_992_1750)">
<path d="M47.3357 126.122C43.9585 126.252 41.2109 129.23 41.2109 132.76V138.054C41.2109 138.875 41.8659 139.543 42.6709 139.543C43.4763 139.543 44.1314 138.875 44.1314 138.054V132.613C44.1314 131.642 44.5123 130.738 45.2043 130.066C45.8957 129.395 46.7973 129.053 47.7555 129.1C49.5922 129.192 51.031 130.787 51.031 132.731V138.054C51.031 138.875 51.686 139.543 52.491 139.543C53.2964 139.543 53.9514 138.875 53.9514 138.054V132.613C53.9514 130.834 53.2572 129.173 51.997 127.935C50.7372 126.698 49.073 126.054 47.3357 126.122Z" fill="#A2C33D"/>
<path d="M38.3035 126.55C37.4985 126.55 36.8435 127.218 36.8435 128.039V133.479C36.8435 134.449 36.4636 135.352 35.7736 136.024C35.0849 136.695 34.1782 137.041 33.2285 136.994C31.417 136.908 29.9435 135.273 29.9435 133.351V128.039C29.9435 127.218 29.2885 126.55 28.4835 126.55C27.6785 126.55 27.0234 127.218 27.0234 128.039V133.479C27.0234 135.256 27.7162 136.916 28.9736 138.153C30.1733 139.334 31.7339 139.976 33.3906 139.976C33.4693 139.976 33.5482 139.974 33.6273 139.971C37.0106 139.847 39.7635 136.864 39.7635 133.322V128.039C39.7635 127.218 39.1086 126.55 38.3035 126.55Z" fill="#A2C33D"/>
<path d="M66.4275 136.565H61.5971C60.6449 136.565 59.7579 136.176 59.0988 135.47C58.441 134.766 58.1042 133.842 58.1514 132.869C58.242 130.996 59.8062 129.528 61.7125 129.528H66.4275C67.2328 129.528 67.8877 128.861 67.8877 128.04C67.8877 127.219 67.2328 126.551 66.4275 126.551H61.5971C59.8524 126.551 58.2234 127.258 57.0094 128.544C55.797 129.828 55.1653 131.516 55.2313 133.297C55.3592 136.741 58.2794 139.543 61.7402 139.543H66.4275C67.2328 139.543 67.8877 138.875 67.8877 138.054C67.8877 137.233 67.2328 136.565 66.4275 136.565Z" fill="#A2C33D"/>
<path d="M75.1009 129.037C72.9332 129.037 71.17 130.835 71.17 133.046C71.17 135.256 72.9332 137.055 75.1009 137.055C77.2685 137.055 79.032 135.256 79.032 133.046C79.032 130.835 77.2685 129.037 75.1009 129.037ZM75.1009 139.773C71.4633 139.773 68.5039 136.756 68.5039 133.046C68.5039 129.336 71.4633 126.319 75.1009 126.319C78.7384 126.319 81.6978 129.336 81.6978 133.046C81.6978 136.756 78.7384 139.773 75.1009 139.773Z" fill="#C40755"/>
<path d="M76.7558 124.892C76.5851 125.51 76.58 125.525 76.0217 125.321C74.4591 124.748 73.0156 123.968 71.9147 122.632C71.1427 121.694 70.7158 120.593 70.6127 119.353C70.5038 118.04 70.6903 116.76 71.0879 115.505C71.1515 115.304 71.2519 115.253 71.4367 115.314C72.6719 115.721 73.8322 116.271 74.8486 117.127C75.952 118.057 76.6481 119.248 76.9398 120.699C77.1548 121.771 77.1165 122.852 76.9342 123.933C76.8801 124.253 76.8153 124.572 76.7558 124.892Z" fill="#A2C33D"/>
<path d="M77.1924 125.536C77.5124 123.251 78.6825 122.385 79.8898 121.997C81.2842 121.53 82.7397 121.997 82.93 122.369C83.1199 122.742 82.7263 123.32 82.5163 123.298C81.444 123.185 80.6843 123.205 79.7332 123.477C78.7331 123.763 77.7923 125.213 77.6118 125.598C77.5937 125.637 77.5649 125.749 77.4794 125.717C77.4476 125.705 77.3837 125.679 77.2878 125.648C77.2611 125.64 77.1819 125.62 77.1924 125.536Z" fill="#5A3114"/>
</g>
<g clip-path="url(#clip1_992_1750)">
<path d="M146.336 63.1218C142.959 63.2522 140.211 66.23 140.211 69.7596V75.0541C140.211 75.875 140.866 76.543 141.671 76.543C142.476 76.543 143.131 75.875 143.131 75.0541V69.6135C143.131 68.6425 143.512 67.7376 144.204 67.0658C144.896 66.3948 145.797 66.0532 146.756 66.0996C148.592 66.192 150.031 67.7872 150.031 69.7312V75.0541C150.031 75.875 150.686 76.543 151.491 76.543C152.296 76.543 152.951 75.875 152.951 75.0541V69.6135C152.951 67.8343 152.257 66.1727 150.997 64.9353C149.737 63.6982 148.073 63.0537 146.336 63.1218Z" fill="#A2C33D"/>
<path d="M137.303 63.55C136.498 63.55 135.844 64.218 135.844 65.0391V70.4793C135.844 71.4488 135.464 72.3522 134.774 73.0236C134.085 73.6947 133.178 74.0407 132.229 73.9937C130.417 73.9076 128.944 72.2733 128.944 70.3505V65.0391C128.944 64.218 128.288 63.55 127.483 63.55C126.678 63.55 126.023 64.218 126.023 65.0391V70.4793C126.023 72.2564 126.716 73.9164 127.974 75.1534C129.173 76.334 130.734 76.9756 132.391 76.9756C132.469 76.9756 132.548 76.9742 132.627 76.9713C136.011 76.847 138.764 73.8642 138.764 70.3219V65.0391C138.764 64.218 138.109 63.55 137.303 63.55Z" fill="#A2C33D"/>
<path d="M165.428 73.565H160.597C159.645 73.565 158.758 73.1762 158.099 72.4705C157.441 71.7656 157.104 70.8416 157.151 69.8691C157.242 67.9958 158.806 66.5285 160.713 66.5285H165.428C166.233 66.5285 166.888 65.8607 166.888 65.0396C166.888 64.2185 166.233 63.5505 165.428 63.5505H160.597C158.852 63.5505 157.223 64.2583 156.009 65.5435C154.797 66.8278 154.165 68.516 154.231 70.2972C154.359 73.7412 157.279 76.543 160.74 76.543H165.428C166.233 76.543 166.888 75.875 166.888 75.0539C166.888 74.2328 166.233 73.565 165.428 73.565Z" fill="#A2C33D"/>
<path d="M174.101 66.0372C171.933 66.0372 170.17 67.8354 170.17 70.046C170.17 72.2565 171.933 74.0549 174.101 74.0549C176.268 74.0549 178.032 72.2565 178.032 70.046C178.032 67.8354 176.268 66.0372 174.101 66.0372ZM174.101 76.7734C170.463 76.7734 167.504 73.7555 167.504 70.046C167.504 66.3364 170.463 63.3185 174.101 63.3185C177.738 63.3185 180.698 66.3364 180.698 70.046C180.698 73.7555 177.738 76.7734 174.101 76.7734Z" fill="#C40755"/>
<path d="M175.756 61.8918C175.585 62.5102 175.58 62.5255 175.022 62.3208C173.459 61.7478 172.016 60.9685 170.915 59.6316C170.143 58.6939 169.716 57.5926 169.613 56.3526C169.504 55.0395 169.69 53.7598 170.088 52.505C170.152 52.3044 170.252 52.2525 170.437 52.3136C171.672 52.7208 172.832 53.2712 173.849 54.1272C174.952 55.0568 175.648 56.248 175.94 57.6994C176.155 58.7706 176.117 59.8523 175.934 60.9326C175.88 61.2532 175.815 61.5721 175.756 61.8918Z" fill="#A2C33D"/>
<path d="M176.192 62.5357C176.512 60.2512 177.682 59.3851 178.89 58.9966C180.284 58.5303 181.74 58.9969 181.93 59.3694C182.12 59.742 181.726 60.3203 181.516 60.2982C180.444 60.1853 179.684 60.2054 178.733 60.477C177.733 60.7627 176.792 62.213 176.612 62.598C176.594 62.6366 176.565 62.7486 176.479 62.7172C176.448 62.7055 176.384 62.6787 176.288 62.6481C176.261 62.6396 176.182 62.6202 176.192 62.5357Z" fill="#5A3114"/>
</g>
<g clip-path="url(#clip2_992_1750)">
<path d="M121.336 146.122C117.959 146.252 115.211 149.23 115.211 152.76V158.054C115.211 158.875 115.866 159.543 116.671 159.543C117.476 159.543 118.131 158.875 118.131 158.054V152.613C118.131 151.642 118.512 150.738 119.204 150.066C119.896 149.395 120.797 149.053 121.756 149.1C123.592 149.192 125.031 150.787 125.031 152.731V158.054C125.031 158.875 125.686 159.543 126.491 159.543C127.296 159.543 127.951 158.875 127.951 158.054V152.613C127.951 150.834 127.257 149.173 125.997 147.935C124.737 146.698 123.073 146.054 121.336 146.122Z" fill="#A2C33D"/>
<path d="M112.303 146.55C111.498 146.55 110.844 147.218 110.844 148.039V153.479C110.844 154.449 110.464 155.352 109.774 156.024C109.085 156.695 108.178 157.041 107.229 156.994C105.417 156.908 103.944 155.273 103.944 153.351V148.039C103.944 147.218 103.288 146.55 102.483 146.55C101.678 146.55 101.023 147.218 101.023 148.039V153.479C101.023 155.256 101.716 156.916 102.974 158.153C104.173 159.334 105.734 159.976 107.391 159.976C107.469 159.976 107.548 159.974 107.627 159.971C111.011 159.847 113.764 156.864 113.764 153.322V148.039C113.764 147.218 113.109 146.55 112.303 146.55Z" fill="#A2C33D"/>
<path d="M140.428 156.565H135.597C134.645 156.565 133.758 156.176 133.099 155.47C132.441 154.766 132.104 153.842 132.151 152.869C132.242 150.996 133.806 149.528 135.713 149.528H140.428C141.233 149.528 141.888 148.861 141.888 148.04C141.888 147.219 141.233 146.551 140.428 146.551H135.597C133.852 146.551 132.223 147.258 131.009 148.544C129.797 149.828 129.165 151.516 129.231 153.297C129.359 156.741 132.279 159.543 135.74 159.543H140.428C141.233 159.543 141.888 158.875 141.888 158.054C141.888 157.233 141.233 156.565 140.428 156.565Z" fill="#A2C33D"/>
<path d="M149.101 149.037C146.933 149.037 145.17 150.835 145.17 153.046C145.17 155.256 146.933 157.055 149.101 157.055C151.268 157.055 153.032 155.256 153.032 153.046C153.032 150.835 151.268 149.037 149.101 149.037ZM149.101 159.773C145.463 159.773 142.504 156.756 142.504 153.046C142.504 149.336 145.463 146.319 149.101 146.319C152.738 146.319 155.698 149.336 155.698 153.046C155.698 156.756 152.738 159.773 149.101 159.773Z" fill="#C40755"/>
<path d="M150.756 144.892C150.585 145.51 150.58 145.525 150.022 145.321C148.459 144.748 147.016 143.968 145.915 142.632C145.143 141.694 144.716 140.593 144.613 139.353C144.504 138.04 144.69 136.76 145.088 135.505C145.152 135.304 145.252 135.253 145.437 135.314C146.672 135.721 147.832 136.271 148.849 137.127C149.952 138.057 150.648 139.248 150.94 140.699C151.155 141.771 151.117 142.852 150.934 143.933C150.88 144.253 150.815 144.572 150.756 144.892Z" fill="#A2C33D"/>
<path d="M151.192 145.536C151.512 143.251 152.682 142.385 153.89 141.997C155.284 141.53 156.74 141.997 156.93 142.369C157.12 142.742 156.726 143.32 156.516 143.298C155.444 143.185 154.684 143.205 153.733 143.477C152.733 143.763 151.792 145.213 151.612 145.598C151.594 145.637 151.565 145.749 151.479 145.717C151.448 145.705 151.384 145.679 151.288 145.648C151.261 145.64 151.182 145.62 151.192 145.536Z" fill="#5A3114"/>
</g>
<g clip-path="url(#clip3_992_1750)">
<path d="M196.25 128.165C192.894 127.766 189.715 130.277 189.163 133.763L188.334 138.992C188.206 139.803 188.748 140.565 189.544 140.691C190.339 140.817 191.091 140.26 191.219 139.449L192.07 134.076C192.222 133.117 192.74 132.282 193.528 131.727C194.316 131.173 195.26 130.976 196.199 131.172C197.999 131.55 199.17 133.351 198.866 135.271L198.034 140.529C197.905 141.339 198.448 142.102 199.243 142.227C200.038 142.353 200.79 141.796 200.918 140.985L201.769 135.612C202.047 133.854 201.622 132.105 200.571 130.685C199.52 129.267 197.977 128.37 196.25 128.165Z" fill="#A2C33D"/>
<path d="M187.265 127.175C186.47 127.049 185.718 127.607 185.59 128.418L184.739 133.791C184.587 134.748 184.071 135.581 183.284 136.136C182.499 136.691 181.549 136.891 180.619 136.696C178.843 136.328 177.643 134.483 177.944 132.584L178.775 127.338C178.903 126.527 178.361 125.765 177.566 125.639C176.771 125.513 176.019 126.07 175.891 126.881L175.04 132.255C174.762 134.01 175.186 135.758 176.235 137.176C177.235 138.53 178.676 139.408 180.312 139.667C180.39 139.679 180.468 139.69 180.547 139.7C183.908 140.106 187.093 137.591 187.648 134.092L188.474 128.874C188.602 128.063 188.06 127.301 187.265 127.175Z" fill="#A2C33D"/>
<path d="M213.474 141.466L208.703 140.711C207.763 140.562 206.948 140.039 206.407 139.239C205.868 138.44 205.679 137.474 205.878 136.521C206.261 134.685 208.035 133.481 209.918 133.779L214.575 134.516C215.37 134.642 216.122 134.085 216.25 133.274C216.379 132.463 215.836 131.701 215.041 131.575L210.27 130.819C208.547 130.546 206.827 130.991 205.427 132.07C204.029 133.149 203.14 134.718 202.927 136.487C202.515 139.909 204.961 143.133 208.379 143.674L213.008 144.407C213.804 144.533 214.555 143.976 214.684 143.165C214.812 142.354 214.27 141.592 213.474 141.466Z" fill="#A2C33D"/>
<path d="M223.223 135.389C221.082 135.05 219.059 136.55 218.713 138.733C218.367 140.917 219.827 142.969 221.968 143.308C224.109 143.647 226.132 142.147 226.478 139.963C226.824 137.78 225.364 135.728 223.223 135.389ZM221.543 145.993C217.95 145.424 215.499 141.98 216.08 138.316C216.66 134.652 220.055 132.135 223.648 132.704C227.241 133.273 229.692 136.716 229.111 140.38C228.531 144.044 225.136 146.562 221.543 145.993Z" fill="#C40755"/>
<path d="M225.504 131.553C225.238 132.137 225.231 132.151 224.711 131.862C223.258 131.051 221.954 130.056 221.076 128.563C220.46 127.516 220.211 126.362 220.303 125.121C220.4 123.807 220.785 122.572 221.374 121.395C221.468 121.207 221.575 121.171 221.748 121.26C222.905 121.856 223.965 122.581 224.834 123.585C225.779 124.676 226.28 125.962 226.341 127.441C226.386 128.532 226.179 129.595 225.83 130.633C225.726 130.942 225.612 131.246 225.504 131.553Z" fill="#A2C33D"/>
<path d="M225.835 132.257C226.508 130.051 227.8 129.378 229.053 129.183C230.503 128.941 231.868 129.629 231.997 130.027C232.127 130.425 231.647 130.935 231.443 130.88C230.402 130.601 229.648 130.502 228.667 130.621C227.634 130.747 226.478 132.032 226.239 132.384C226.215 132.419 226.17 132.525 226.09 132.481C226.06 132.465 226.002 132.428 225.912 132.383C225.887 132.37 225.811 132.339 225.835 132.257Z" fill="#5A3114"/>
</g>
<path d="M47.7344 23L119.836 34.4197L109.667 98.6195C108.803 104.074 103.681 107.796 98.2262 106.932L45.8787 98.641C40.4238 97.777 36.7022 92.6546 37.5661 87.1997L47.7344 23Z" fill="#EDD18D"/>
<g clip-path="url(#clip4_992_1750)">
<path d="M69.2543 55.9191C65.4405 55.4629 61.8345 58.2689 61.216 62.174L60.2882 68.0315C60.1444 68.9397 60.7625 69.7952 61.6662 69.9383C62.5703 70.0815 63.4226 69.4589 63.5665 68.5507L64.5198 62.5314C64.69 61.4572 65.2761 60.5239 66.1706 59.9036C67.0643 59.2841 68.1362 59.0665 69.2037 59.2882C71.2493 59.717 72.5848 61.7377 72.2442 63.8884L71.3115 69.7774C71.1676 70.6856 71.7858 71.5411 72.6894 71.6842C73.5935 71.8274 74.4458 71.2048 74.5896 70.2966L75.543 64.2773C75.8547 62.309 75.3666 60.3473 74.1688 58.7542C72.9715 57.1616 71.2164 56.1527 69.2543 55.9191Z" fill="#A2C33D"/>
<path d="M59.0419 54.7878C58.1383 54.6447 57.2861 55.2672 57.1422 56.1757L56.1889 62.1945C56.019 63.267 55.4342 64.199 54.5421 64.8192C53.6513 65.4391 52.5729 65.6607 51.5152 65.4399C49.4968 65.0227 48.1291 62.9525 48.4661 60.8253L49.3968 54.9489C49.5407 54.0405 48.9224 53.185 48.0188 53.0419C47.1152 52.8988 46.2628 53.5213 46.119 54.4298L45.1657 60.4486C44.8543 62.4147 45.341 64.3744 46.5357 65.9665C47.6755 67.4859 49.3149 68.4732 51.1746 68.7678C51.2629 68.7817 51.3517 68.7942 51.441 68.8051C55.2606 69.2691 58.8735 66.4585 59.4942 62.5394L60.4199 56.6948C60.5638 55.7864 59.9457 54.9309 59.0419 54.7878Z" fill="#A2C33D"/>
<path d="M88.8568 70.8676L83.4346 70.0088C82.3657 69.8395 81.4382 69.2517 80.8219 68.3537C80.2071 67.457 79.991 66.3748 80.2143 65.3072C80.6443 63.2509 82.6573 61.9056 84.7972 62.2445L90.0898 63.0828C90.9937 63.2259 91.8459 62.6036 91.9898 61.6952C92.1337 60.7868 91.5155 59.9313 90.6117 59.7881L85.1894 58.9293C83.231 58.6191 81.2783 59.1126 79.6904 60.3186C78.1045 61.5239 77.0995 63.2793 76.8614 65.2617C76.4016 69.0947 79.1885 72.7137 83.0734 73.3289L88.335 74.1623C89.2389 74.3055 90.0911 73.6829 90.235 72.7744C90.3789 71.866 89.7607 71.0107 88.8568 70.8676Z" fill="#A2C33D"/>
<path d="M99.9115 64.0819C97.4783 63.6965 95.1839 65.3725 94.7965 67.8182C94.4092 70.2637 96.0734 72.5669 98.5066 72.9523C100.94 73.3376 103.234 71.6615 103.622 69.216C104.009 66.7703 102.345 64.4673 99.9115 64.0819ZM98.0302 75.96C93.947 75.3133 91.1538 71.4483 91.8038 67.3442C92.4539 63.2401 96.3047 60.4274 100.388 61.0741C104.471 61.7208 107.264 65.5858 106.614 69.6899C105.964 73.794 102.113 76.6067 98.0302 75.96Z" fill="#C40755"/>
<path d="M102.499 59.7897C102.199 60.4435 102.19 60.4595 101.599 60.1338C99.9457 59.2221 98.462 58.1032 97.4605 56.4284C96.7582 55.2537 96.472 53.9594 96.5735 52.5693C96.6813 51.0971 97.1149 49.7145 97.7811 48.3969C97.8877 48.1863 98.0094 48.1467 98.2062 48.2472C99.5214 48.9172 100.727 49.7325 101.718 50.8602C102.794 52.0849 103.367 53.5265 103.44 55.1841C103.493 56.4075 103.261 57.5975 102.867 58.7601C102.75 59.1053 102.621 59.4466 102.499 59.7897Z" fill="#A2C33D"/>
<path d="M102.874 60.5795C103.633 58.1089 105.098 57.3587 106.522 57.1436C108.169 56.8755 109.721 57.6505 109.869 58.0965C110.017 58.5425 109.474 59.1124 109.242 59.0506C108.058 58.735 107.202 58.6222 106.087 58.7535C104.914 58.8918 103.604 60.3291 103.334 60.7229C103.306 60.7625 103.255 60.8812 103.164 60.8313C103.13 60.8127 103.063 60.7717 102.961 60.7208C102.933 60.7066 102.847 60.6711 102.874 60.5795Z" fill="#5A3114"/>
</g>
<line x1="20.2642" y1="231.082" x2="68.2642" y2="186.082" stroke="#868484" stroke-width="8"/>
<line x1="64.0262" y1="187.134" x2="226.026" y2="230.134" stroke="#868484" stroke-width="8"/>
<path d="M21.5101 182L15.1343 84H247.581L228.846 182H21.5101Z" stroke="#ACA8A8" stroke-width="4"/>
<line x1="20" y1="162" x2="232" y2="162" stroke="#ACA8A8" stroke-width="4"/>
<line x1="20" y1="142" x2="236" y2="142" stroke="#ACA8A8" stroke-width="4"/>
<line x1="18" y1="122" x2="240" y2="122" stroke="#ACA8A8" stroke-width="4"/>
<path d="M16.5 102H244.5" stroke="#ACA8A8" stroke-width="4"/>
<line x1="45" y1="86" x2="45" y2="184" stroke="#ACA8A8" stroke-width="4"/>
<line x1="80" y1="86" x2="80" y2="184" stroke="#ACA8A8" stroke-width="4"/>
<line x1="115" y1="86" x2="115" y2="184" stroke="#ACA8A8" stroke-width="4"/>
<line x1="150" y1="86" x2="150" y2="184" stroke="#ACA8A8" stroke-width="4"/>
<line x1="185" y1="86" x2="185" y2="184" stroke="#ACA8A8" stroke-width="4"/>
<line x1="220" y1="86" x2="220" y2="184" stroke="#ACA8A8" stroke-width="4"/>
<path d="M15 84C15 74.9943 12.2 57.4094 1 59.1157" stroke="#ACA8A8" stroke-width="4"/>
<defs>
<clipPath id="clip0_992_1750">
<rect width="56" height="25" fill="white" transform="translate(27 115)"/>
</clipPath>
<clipPath id="clip1_992_1750">
<rect width="56" height="25" fill="white" transform="translate(126 52)"/>
</clipPath>
<clipPath id="clip2_992_1750">
<rect width="56" height="25" fill="white" transform="translate(101 135)"/>
</clipPath>
<clipPath id="clip3_992_1750">
<rect width="56" height="25" fill="white" transform="translate(177.91 114) rotate(9)"/>
</clipPath>
<clipPath id="clip4_992_1750">
<rect width="63.6445" height="28.0036" fill="white" transform="translate(48.3789 40) rotate(9)"/>
</clipPath>
</defs>
</svg>
