<svg width="6" height="30" viewBox="0 0 6 30" fill="none" xmlns="http://www.w3.org/2000/svg">
<path d="M5.78711 3.24023C5.78711 4.58659 5.65104 6.30534 5.37891 8.39648C5.10677 10.4733 4.71289 13.1803 4.19727 16.5176L3.81055 18.9883C3.79622 19.0885 3.76758 19.3464 3.72461 19.7617C3.69596 20.1771 3.62435 20.5495 3.50977 20.8789C3.40951 21.194 3.26628 21.3516 3.08008 21.3516C2.82227 21.3516 2.64323 21.194 2.54297 20.8789C2.45703 20.5638 2.39974 20.2559 2.37109 19.9551C2.35677 19.64 2.34245 19.4323 2.32812 19.332C2.25651 18.7161 2.14193 17.9212 1.98438 16.9473C1.84115 15.959 1.73372 15.25 1.66211 14.8203C1.2181 11.9414 0.874349 9.60677 0.630859 7.81641C0.401693 6.01172 0.287109 4.47201 0.287109 3.19727C0.287109 2.35221 0.516276 1.74349 0.974609 1.37109C1.44727 0.998698 2.12044 0.8125 2.99414 0.8125C3.82487 0.8125 4.49805 1.01302 5.01367 1.41406C5.5293 1.8151 5.78711 2.42383 5.78711 3.24023ZM3.08008 24.3594C3.55273 24.3594 3.98958 24.4811 4.39062 24.7246C4.80599 24.9681 5.13542 25.2975 5.37891 25.7129C5.6224 26.1139 5.74414 26.5508 5.74414 27.0234C5.74414 27.7539 5.47917 28.3698 4.94922 28.8711C4.43359 29.3724 3.81055 29.623 3.08008 29.623C2.36393 29.623 1.74805 29.3724 1.23242 28.8711C0.73112 28.3555 0.480469 27.7396 0.480469 27.0234C0.480469 26.293 0.73112 25.6699 1.23242 25.1543C1.73372 24.6243 2.34961 24.3594 3.08008 24.3594Z" fill="#A2C33D"/>
</svg>
