<svg width="71" height="67" viewBox="0 0 71 67" fill="none" xmlns="http://www.w3.org/2000/svg">
<path d="M56.0868 67H11.6712C12.7087 44.9902 4.32268 29.562 0 24.5991C10.6338 27.7063 17.831 43.5879 20.1005 51.1402C21.1379 40.7827 15.1294 31.9357 11.9954 28.8068C22.1105 29.0658 27.8813 40.3511 29.5023 45.9615C31.8365 33.2735 25.5038 10.0338 22.0457 0C35.0137 6.47345 36.3105 28.8068 35.3379 39.1643C40.0064 18.4493 54.3577 12.1917 60.9498 11.6522C50.5753 22.0097 49.1705 43.8037 49.9269 47.5798C52.7799 40.5885 67.3257 30.7489 71 31.3962C63.2192 41.4948 55.7626 58.5845 56.0868 67Z" fill="#C7DB8B"/>
</svg>
